<?xml version="1.0" standalone="no"?>
<!DOCTYPE svg PUBLIC "-//W3C//DTD SVG 1.1//EN" "http://www.w3.org/Graphics/SVG/1.1/DTD/svg11.dtd" >
<svg xmlns="http://www.w3.org/2000/svg">
<metadata>Generated by IcoMoon</metadata>
<defs>
<font id="icomoon" horiz-adv-x="1024">
<font-face units-per-em="1024" ascent="960" descent="-64" />
<missing-glyph horiz-adv-x="1024" />
<glyph unicode="&#x20;" horiz-adv-x="512" d="" />
<glyph unicode="&#xe900;" glyph-name="right-arrow-two" d="M743.156 728.843l-45.612-45.614 202.973-202.975h-900.517v-64.509h900.517l-202.973-202.973 45.612-45.614 280.844 280.844z" />
<glyph unicode="&#xe901;" glyph-name="heart" d="M940.259 834.32c-52.965 56.93-127.184 89.323-204.942 89.443-77.821-0.090-152.116-32.465-205.163-89.407l-18.079-19.104-18.079 19.104c-105.26 113.288-282.43 119.794-395.716 14.534-5.020-4.666-9.868-9.512-14.534-14.534-111.661-120.44-111.661-306.573 0-427.013l401.761-423.683c13.9-14.674 37.063-15.302 51.737-1.402 0.48 0.455 0.948 0.922 1.402 1.402l401.615 423.683c111.652 120.427 111.652 306.55-0.002 426.977zM887.304 457.737h-0.036l-375.193-395.723-375.227 395.723c-85.302 92.027-85.302 234.234 0 326.261 77.465 83.96 208.328 89.224 292.288 11.76 4.076-3.761 7.998-7.683 11.76-11.76l44.611-47.064c14.702-14.607 38.437-14.607 53.139 0l44.611 47.028c77.465 83.96 208.328 89.224 292.288 11.76 4.076-3.761 7.998-7.683 11.76-11.76 86.044-92.173 86.675-234.639 0-326.224z" />
<glyph unicode="&#xe902;" glyph-name="large-paper-bag" d="M715.138 783.247c0.796 4.494 1.393 9.105 1.393 13.831v82.755c0 44.213-35.971 80.167-80.184 80.167h-248.695c-44.213 0-80.184-35.954-80.184-80.167v-82.755c0-4.726 0.597-9.337 1.393-13.831h-248.778v-767.046c0-44.213 35.971-80.201 80.184-80.201h743.464c44.213 0 80.184 35.987 80.184 80.201v767.046h-248.778zM373.805 797.078v82.755c0 7.612 6.219 13.831 13.848 13.831h248.695c7.629 0 13.848-6.219 13.848-13.831v-82.755c0-7.612-6.219-13.831-13.848-13.831h-248.695c-7.629 0-13.848 6.219-13.848 13.831zM897.58 16.201c0-7.645-6.219-13.864-13.848-13.864h-743.464c-7.629 0-13.848 6.219-13.848 13.864v700.71h771.159v-700.71z" />
<glyph unicode="&#xe903;" glyph-name="left-arrow-angle" d="M331.295 447.762l444.985 444.985c15.384 15.386 15.384 40.33 0 55.716-15.388 15.381-40.33 15.381-55.716 0l-472.843-472.843c-15.381-15.386-15.381-40.33 0-55.716l472.843-472.843c15.654-15.118 40.598-14.684 55.716 0.97 14.746 15.27 14.746 39.478 0 54.746l-444.985 444.985z" />
<glyph unicode="&#xe904;" glyph-name="right-arrow" d="M689.55 797.181c-13.95 14.438-37.168 14.438-51.606 0-13.95-13.95-13.95-37.168 0-51.086l261.674-261.674h-863.49c-20.129-0.033-36.128-16.032-36.128-36.16s15.999-36.648 36.128-36.648h863.49l-261.674-261.187c-13.95-14.438-13.95-37.689 0-51.606 14.438-14.438 37.689-14.438 51.606 0l323.622 323.622c14.438 13.95 14.438 37.168 0 51.086l-323.622 323.654z" />
<glyph unicode="&#xe905;" glyph-name="right-arrow-angle" d="M798.813 480.478l-512.425 466.975c-16.815 16.73-44.086 16.73-60.901 0s-16.815-43.872 0-60.602l481.528-438.851-481.485-438.85c-16.815-16.73-16.815-43.874 0-60.602s44.086-16.729 60.9 0l512.426 466.975c8.962 8.918 12.805 20.742 12.206 32.434 0.557 11.737-3.284 23.559-12.249 32.521z" />
<glyph unicode="&#xe906;" glyph-name="search" d="M422.069 116.646c-232.514 0-421.677 189.163-421.677 421.677s189.163 421.677 421.677 421.677 421.677-189.163 421.677-421.677-189.163-421.677-421.677-421.677zM422.069 880.061c-188.436 0-341.738-153.303-341.738-341.738s153.303-341.738 341.738-341.738 341.738 153.303 341.738 341.738-153.303 341.738-341.738 341.738zM1011.903-52.293c15.608 15.61 15.608 40.919 0 56.527l-178.863 178.863c-15.61 15.61-40.919 15.61-56.527 0s-15.608-40.919 0-56.527l178.863-178.863c7.804-7.804 18.034-11.705 28.264-11.705s20.456 3.901 28.262 11.705z" />
<glyph unicode="&#xe907;" glyph-name="user" d="M512 960c-148.878 0-270-121.122-270-270s121.122-270 270-270 270 121.122 270 270-121.122 270-270 270zM512 480c-115.794 0-210 94.206-210 210s94.206 210 210 210c115.794 0 210-94.206 210-210s-94.206-210-210-210zM595.666 358h-167.334c-138.404 0-274.994-63.902-366.332-200.916v-221.084h900v221.084c-91.206 136.816-227.758 200.916-366.334 200.916zM902.002-4h-780.002v142.726c70.062 99.908 183.904 159.274 306.334 159.274h167.334c122.43 0 236.27-59.366 306.334-159.274v-142.726z" />
<glyph unicode="&#xe908;" glyph-name="add" d="M1024 496.762h-463.238v463.238h-97.524v-463.238h-463.238v-97.524h463.238v-463.238h97.524v463.238h463.238z" />
<glyph unicode="&#xe909;" glyph-name="envelope" d="M927.999 832.001h-831.999c-52.938 0-96.001-43.063-96.001-96.001v-576c0-52.938 43.063-96.001 96.001-96.001h831.999c52.938 0 96.001 43.063 96.001 96.001v576c0 52.938-43.063 96.001-96.001 96.001zM927.999 768.001c4.348 0 8.484-0.902 12.265-2.477l-428.264-371.18-428.267 371.18c3.781 1.573 7.917 2.477 12.265 2.477zM927.999 128.001h-831.999c-17.656 0-32.001 14.343-32.001 32.001v537.905l427.031-370.094c6.032-5.218 13.501-7.813 20.969-7.813s14.937 2.593 20.969 7.813l427.031 370.094v-537.907c-0.002-17.656-14.345-31.999-32.001-31.999z" />
<glyph unicode="&#xe90a;" glyph-name="straight-quotes" d="M0 832v-768l384 384v384zM640 832v-768l384 384v384z" />
<glyph unicode="&#xe90b;" glyph-name="wedding-rings" d="M701.74 671.544c-69.066 0-134.412-21.324-189.74-61.766-34.48 25.202-72.848 42.972-113.586 52.788l86.582 99.224c0.030 0.034 0.050 0.074 0.078 0.108 0.514 0.598 0.972 1.238 1.386 1.91 0.066 0.108 0.132 0.214 0.196 0.322 0.384 0.662 0.72 1.352 1.002 2.074 0.044 0.112 0.082 0.224 0.124 0.338 0.264 0.726 0.484 1.474 0.634 2.246 0.014 0.070 0.020 0.14 0.032 0.208 0.13 0.722 0.204 1.46 0.228 2.212 0.004 0.1 0.014 0.198 0.014 0.298 0 0.054 0.008 0.108 0.008 0.162 0 0.718-0.068 1.42-0.164 2.108-0.020 0.136-0.038 0.268-0.062 0.404-0.128 0.762-0.308 1.506-0.548 2.222-0.032 0.094-0.070 0.186-0.102 0.28-0.272 0.766-0.592 1.51-0.978 2.212-0.016 0.030-0.036 0.058-0.052 0.088-0.416 0.746-0.894 1.452-1.428 2.112-0.016 0.020-0.026 0.042-0.042 0.062l-0.056 0.068-66.966 82.204c-2.854 3.504-7.136 5.538-11.654 5.538h-168.778c-4.52 0-8.8-2.034-11.654-5.538l-67.020-82.26c-0.016-0.020-0.026-0.042-0.042-0.062-0.534-0.66-1.010-1.366-1.428-2.112-0.016-0.030-0.036-0.058-0.052-0.088-0.386-0.704-0.706-1.448-0.978-2.212-0.034-0.094-0.072-0.186-0.102-0.28-0.238-0.718-0.418-1.462-0.548-2.222-0.022-0.134-0.042-0.268-0.062-0.404-0.098-0.692-0.164-1.39-0.164-2.108 0-0.056 0.008-0.108 0.008-0.162 0.002-0.1 0.012-0.198 0.014-0.298 0.022-0.754 0.098-1.492 0.228-2.212 0.012-0.070 0.018-0.14 0.032-0.208 0.15-0.774 0.37-1.522 0.634-2.246 0.042-0.114 0.080-0.226 0.124-0.338 0.282-0.722 0.618-1.412 1.002-2.074 0.062-0.108 0.13-0.214 0.196-0.322 0.414-0.674 0.876-1.312 1.386-1.91 0.030-0.034 0.048-0.074 0.078-0.108l86.678-99.34c-141.104-34.284-246.198-161.678-246.198-313.178 0-177.696 144.566-322.26 322.258-322.26 69.066 0 134.412 21.324 189.742 61.766 55.328-40.44 120.672-61.766 189.742-61.766 177.694 0 322.258 144.566 322.258 322.26s-144.566 322.26-322.26 322.26zM399.506 838.914l42.53-52.208h-48.912l-16.832 52.208h23.214zM392.888 756.644h47.716l-76.57-87.754c-0.464 0.058-0.922 0.124-1.382 0.182l30.236 87.572zM299.812 838.916h44.894l16.832-52.208h-78.558l16.832 52.208zM361.084 756.642l-29.434-85.248c-3.122 0.088-6.25 0.148-9.388 0.148-1.928 0-3.906-0.030-5.916-0.074-1.158-0.020-2.318-0.038-3.476-0.072l-29.434 85.246h77.648zM245.014 838.916h23.21l-16.83-52.208h-48.91l42.53 52.208zM203.916 756.642h47.714l30.256-87.622c-0.454-0.058-0.908-0.116-1.36-0.174l-76.61 87.796zM322.258 57.090c-161.116 0-292.194 131.078-292.194 292.194 0 145.752 107.272 266.914 247.008 288.698 3.488 0.542 6.99 1.014 10.504 1.43 0.438 0.052 0.88 0.102 1.32 0.152 4.72 0.538 9.456 0.928 14.194 1.238 0.074 0.004 0.146-0.010 0.22-0.004 3.496 0.224 6.7 0.388 9.72 0.502 3.078 0.098 6.156 0.18 9.226 0.18 6.15 0 12.256-0.39 18.898-0.818 0.324-0.020 0.648-0.030 0.968-0.030 0.242 0 0.478 0.044 0.718 0.056 8.030-0.604 16.208-1.548 24.682-2.866 0.772-0.12 1.546-0.178 2.312-0.178 0.032 0 0.066 0.004 0.098 0.006 48.32-7.852 93.55-27.692 132.774-58.532 4.040-3.176 8-6.466 11.876-9.858 3.774-3.304 7.462-6.712 11.066-10.21 1.946-1.89 3.872-3.802 5.766-5.744 5.404-5.54 10.59-11.294 15.538-17.242 0 0 0 0 0.002-0.002 43.526-52.302 67.498-118.634 67.498-186.776 0-63.274-20.67-124.988-58.468-175.356-0.080 0.068-0.164 0.132-0.246 0.198-2.080 1.738-4.132 3.508-6.152 5.318-0.388 0.348-0.766 0.714-1.152 1.066-1.618 1.47-3.22 2.954-4.796 4.47-0.69 0.664-1.36 1.344-2.042 2.018-1.252 1.234-2.5 2.476-3.722 3.74-0.74 0.766-1.468 1.544-2.196 2.318-1.14 1.21-2.272 2.432-3.386 3.668-0.34 0.376-0.674 0.762-1.012 1.14 24.26 33.452 40.186 72.318 46.26 113.142 1.22 8.212-4.444 15.86-12.654 17.080-8.222 1.226-15.86-4.446-17.080-12.654-4.93-33.132-17.238-64.796-35.836-92.646-25.1 37.428-38.276 80.772-38.276 126.5s13.178 89.072 38.276 126.498c20.566-30.764 33.334-65.97 37.128-102.934 0.796-7.738 7.324-13.498 14.936-13.498 0.514 0 1.032 0.026 1.554 0.080 8.26 0.848 14.266 8.232 13.418 16.49-5.062 49.32-24.18 95.896-55.28 134.692-12.516 15.612-26.798 29.724-42.538 42.040-2.248 1.76-4.528 3.484-6.834 5.166-44.394 32.43-96.988 49.574-152.096 49.574-62.108 0-122.128-22.38-169-63.014-6.272-5.438-6.948-14.932-1.512-21.204 5.438-6.272 14.932-6.948 21.204-1.512 41.406 35.898 94.43 55.666 149.306 55.666 43.446 0 85.102-12.088 121.432-35.036-41.508-55.488-64.212-123.386-64.212-193.006 0-69.618 22.704-137.518 64.212-193.006-36.33-22.948-77.986-35.036-121.432-35.036-125.744 0-228.042 102.3-228.042 228.042 0 46.764 14.048 91.7 40.624 129.952 4.738 6.816 3.050 16.184-3.768 20.922-6.818 4.74-16.184 3.050-20.92-3.768-30.094-43.312-46-94.18-46-147.106 0-142.32 115.786-258.106 258.106-258.106 50.468 0 98.822 14.374 140.704 41.704 0.368-0.406 0.752-0.8 1.122-1.202 0.99-1.080 1.992-2.15 2.998-3.218 0.962-1.024 1.926-2.044 2.904-3.056 1.022-1.058 2.058-2.104 3.094-3.148 0.988-0.996 1.976-1.99 2.976-2.972 1.050-1.030 2.112-2.046 3.174-3.062 1.014-0.968 2.026-1.938 3.052-2.894 1.074-1 2.162-1.986 3.25-2.97 0.724-0.656 1.432-1.326 2.158-1.974-48.718-33.63-105.53-51.302-165.43-51.302zM701.74 57.090c-66.164 0-128.564 21.564-180.45 62.36-16.16 12.71-31.050 27.194-44.25 43.056-43.526 52.306-67.498 118.636-67.498 186.778 0 63.272 20.668 124.986 58.468 175.356 0.078-0.064 0.158-0.126 0.236-0.19 2.084-1.738 4.138-3.512 6.16-5.324 0.402-0.36 0.792-0.738 1.192-1.102 1.604-1.458 3.194-2.93 4.756-4.434 0.698-0.672 1.378-1.362 2.068-2.044 1.24-1.224 2.478-2.456 3.69-3.708 0.752-0.776 1.488-1.566 2.226-2.352 1.126-1.198 2.246-2.404 3.348-3.626 0.346-0.384 0.688-0.776 1.030-1.164-31.734-43.816-49.086-97.104-49.086-151.414 0-58.474 20.114-115.768 56.64-161.324 14.302-17.84 30.914-33.724 49.37-47.208 44.394-32.43 96.99-49.574 152.098-49.574 67.5 0 131.342 25.888 179.764 72.892 5.956 5.782 6.098 15.298 0.314 21.256-5.782 5.958-15.298 6.096-21.256 0.314-42.78-41.528-99.184-64.398-158.824-64.398-43.446 0-85.102 12.090-121.434 35.038 41.508 55.486 64.212 123.386 64.212 193.006s-22.704 137.52-64.212 193.006c36.332 22.948 77.988 35.036 121.434 35.036 125.744 0 228.042-102.3 228.042-228.042 0-42.328-11.676-83.646-33.768-119.484-4.358-7.068-2.158-16.328 4.908-20.684 7.068-4.358 16.328-2.158 20.684 4.908 25.018 40.584 38.242 87.356 38.242 135.26 0 142.32-115.786 258.106-258.106 258.106-50.466 0-98.822-14.374-140.704-41.704-0.358 0.394-0.73 0.778-1.090 1.17-1.018 1.11-2.046 2.21-3.080 3.308-0.936 0.994-1.872 1.986-2.82 2.968-1.052 1.088-2.116 2.164-3.184 3.238-0.958 0.964-1.914 1.928-2.884 2.88-1.082 1.062-2.176 2.11-3.274 3.158-0.982 0.938-1.962 1.876-2.954 2.8-1.112 1.036-2.24 2.058-3.37 3.078-0.696 0.63-1.374 1.274-2.074 1.896 48.722 33.62 105.532 51.292 165.434 51.292 161.116 0 292.194-131.078 292.194-292.194 0.004-161.112-131.074-292.19-292.192-292.19z" />
<glyph unicode="&#xe90c;" glyph-name="bracelet" d="M448 720c0-35.346 28.654-64 64-64s64 28.654 64 64c0 35.346-28.654 64-64 64v0c-35.33-0.041-63.959-28.67-64-63.996v-0.004zM512 752c17.673 0 32-14.327 32-32s-14.327-32-32-32c-17.673 0-32 14.327-32 32v0c0.021 17.665 14.335 31.979 31.998 32h0.002zM374.869 589.327c16.613 9.012 35.9 15.948 58.967 21.206 16.909 3.921 31.338 12.795 42.085 24.992l0.075 0.087-23.992 21.176c-6.487-7.371-15.138-12.698-24.955-14.992l-0.322-0.063c-25.951-5.914-47.904-13.855-67.115-24.278-55.174-30.281-99.362-74.586-128.664-128.192l-0.836-1.671 28.172-15.18c27.132 49.767 66.914 89.655 115.094 116.164l1.492 0.752zM563.588 796.496c3.245 14.255 8.089 26.835 14.454 38.462l-0.385-0.768c4.319-1.409 9.289-2.221 14.449-2.221 26.569 0 48.107 21.538 48.107 48.107s-21.538 48.107-48.107 48.107c-26.569 0-48.107-21.538-48.107-48.107 0-9.838 2.953-18.986 8.021-26.606l-0.111 0.177c-8.479-14.447-15.214-31.187-19.311-48.937l-0.234-1.206zM592 896c8.837 0 16-7.163 16-16s-7.163-16-16-16c-8.837 0-16 7.163-16 16v0c0.010 8.832 7.168 15.99 15.999 16h0.001zM571.996 656.788l-23.992-21.176c10.822-12.284 25.251-21.159 41.623-24.974l0.537-0.105c23.066-5.258 42.354-12.194 58.967-21.206 49.672-27.261 89.454-67.149 115.833-115.411l0.753-1.505 28.172 15.18c-30.138 55.278-74.327 99.583-127.843 129.028l-1.657 0.835c-19.211 10.423-41.164 18.364-67.115 24.279-10.139 2.356-18.79 7.683-25.232 15.002l-0.046 0.053zM432 832c0.010 0 0.022 0 0.034 0 5.109 0 10.031 0.801 14.647 2.285l-0.339-0.094c5.981-10.86 10.824-23.439 13.877-36.703l0.192-0.992 31.223 7.008c-4.331 18.956-11.065 35.696-20.003 50.992l0.458-0.849c4.934 7.418 7.873 16.533 7.873 26.334 0 26.499-21.482 47.981-47.981 47.981s-47.981-21.482-47.981-47.981c0-26.499 21.482-47.981 47.981-47.981 0.007 0 0.013 0 0.020 0h-0.001zM432 896c8.837 0 16-7.163 16-16s-7.163-16-16-16c-8.837 0-16 7.163-16 16v0c0.010 8.832 7.168 15.99 15.999 16h0.001zM861.621 308.033c11.361 11.528 18.376 27.365 18.376 44.841 0 23.616-12.811 44.24-31.863 55.3l-0.306 0.164c0.398 2.32 0.625 4.993 0.625 7.719 0 26.506-21.487 47.993-47.993 47.993s-47.993-21.487-47.993-47.993c0-10.86 3.607-20.877 9.688-28.919l-0.087 0.121c-6.313-9.74-10.066-21.649-10.066-34.434 0-13.877 4.421-26.721 11.932-37.201l-0.131 0.192c-11.361-11.535-18.375-27.378-18.375-44.859 0-7.784 1.391-15.243 3.938-22.142l-0.143 0.443c-19.292-11.252-32.051-31.847-32.051-55.423 0-1.676 0.065-3.338 0.191-4.982l-0.014 0.218c-23.76-6.277-41.86-25.268-46.749-49.078l-0.071-0.413c-0.361 0.007-0.787 0.012-1.215 0.012-24.84 0-46.373-14.157-56.972-34.842l-0.168-0.361c-5.498 1.711-11.819 2.696-18.37 2.696-18.813 0-35.727-8.126-47.425-21.060l-0.049-0.055c-9.713 6.29-21.586 10.030-34.333 10.030-12.62 0-24.385-3.666-34.286-9.99l0.257 0.153c-11.738 12.875-28.581 20.922-47.303 20.922-6.552 0-12.874-0.986-18.825-2.817l0.453 0.12c-10.767 21.047-32.302 35.204-57.142 35.204-0.426 0-0.852-0.004-1.276-0.012l0.064 0.001c-4.946 24.223-23.056 43.211-46.379 49.354l-0.446 0.1c0.114 1.43 0.178 3.096 0.178 4.777 0 23.588-12.748 44.199-31.731 55.319l-0.302 0.164c2.393 6.449 3.777 13.899 3.777 21.672 0 17.484-7.004 33.332-18.359 44.891l0.009-0.009c7.366 10.281 11.779 23.114 11.779 36.978 0 12.785-3.753 24.694-10.217 34.685l0.152-0.25c6.029 7.94 9.659 17.99 9.659 28.888 0 26.526-21.503 48.029-48.029 48.029s-48.029-21.503-48.029-48.029c0-2.753 0.232-5.452 0.677-8.079l-0.040 0.283c-19.357-11.228-32.167-31.854-32.167-55.471 0-17.488 7.023-33.335 18.404-44.875l-0.007 0.007c-7.398-10.294-11.831-23.151-11.831-37.044 0-23.568 12.758-44.157 31.744-55.236l0.303-0.164c-0.341-0.949-0.665-1.907-0.963-2.877-1.801-5.636-2.839-12.119-2.839-18.845 0-29.685 20.22-54.647 47.639-61.866l0.446-0.1c-0.116-1.447-0.183-3.132-0.183-4.833 0-35.329 28.64-63.97 63.97-63.97 0.006 0 0.012 0 0.017 0h-0.001c0.405 0 0.811 0.019 1.216 0.026 0.196-0.98 0.411-1.959 0.653-2.935 7.107-28.116 32.179-48.592 62.033-48.592 6.57 0 12.908 0.992 18.872 2.833l-0.453-0.12c10.759-21.043 32.286-35.198 57.119-35.198 12.641 0 24.425 3.668 34.346 9.998l-0.258-0.154c11.734-12.883 28.577-20.936 47.301-20.936 18.816 0 35.733 8.133 47.427 21.075l0.050 0.056c9.73-6.293 21.622-10.034 34.387-10.034 24.831 0 46.355 14.154 56.947 34.834l0.168 0.361c5.497-1.709 11.816-2.693 18.365-2.693 29.862 0 54.944 20.462 61.991 48.13l0.096 0.443c0.242 0.977 0.457 1.955 0.653 2.936 0.406-0.008 0.813-0.026 1.218-0.026 0.004 0 0.008 0 0.013 0 35.33 0 63.971 28.641 63.971 63.971 0 1.701-0.066 3.386-0.197 5.053l0.014-0.221c27.855 7.306 48.070 32.255 48.070 61.927 0 7.801-1.397 15.276-3.956 22.188l0.143-0.443c19.307 11.251 32.077 31.856 32.077 55.444 0 12.821-3.772 24.76-10.268 34.769l0.151-0.249q-0.822 1.282-1.699 2.515zM800.467 432c8.525-0.015 15.486-6.691 15.955-15.101l0.002-0.042c-1.319 0.009-2.644-0.008-3.978-0.081-9.79-0.553-18.841-3.237-26.851-7.593l0.334 0.166c-0.923 1.959-1.462 4.254-1.462 6.676 0 8.822 7.152 15.974 15.974 15.974 0.009 0 0.018 0 0.027 0h-0.001zM784.047 351.098c-0.032 0.535-0.050 1.161-0.050 1.791 0 17.673 14.327 32.001 32.001 32.001s32.001-14.327 32.001-32.001c0-9.615-4.24-18.239-10.952-24.105l-0.037-0.032c-3.978 1.946-8.614 3.583-13.456 4.675l-0.431 0.082c-4.108 0.945-8.826 1.486-13.67 1.486-6.417 0-12.612-0.95-18.452-2.718l0.451 0.117c-4.263 5.054-6.991 11.525-7.398 18.619l-0.004 0.085zM224 432c0.007 0 0.016 0 0.025 0 8.823 0 15.975-7.152 15.975-15.975 0-2.422-0.539-4.717-1.503-6.774l0.041 0.098c-7.676 4.19-16.727 6.875-26.351 7.42l-0.168 0.008c-1.334 0.074-2.658 0.092-3.976 0.084 0.472 8.45 7.433 15.125 15.955 15.14h0.001zM176.518 354.651c0.941 16.915 14.887 30.276 31.954 30.276 17.673 0 32.001-14.327 32.001-32.001 0-7.826-2.809-14.995-7.474-20.556l0.040 0.049c-5.381 1.635-11.566 2.577-17.971 2.577-10.031 0-19.523-2.31-27.973-6.426l0.379 0.167c-6.759 5.897-11.005 14.526-11.005 24.146 0 0.622 0.018 1.239 0.053 1.852l-0.004-0.085zM208.189 302.248c2.065 0.475 4.437 0.748 6.872 0.748 17.652 0 31.962-14.31 31.962-31.962 0-4.774-1.046-9.303-2.923-13.371l0.082 0.198c-0.285 0.005-0.621 0.007-0.958 0.007-10.932 0-21.219-2.757-30.206-7.613l0.337 0.167c-4.6-2.46-8.569-5.215-12.183-8.367l0.077 0.066c-10.863 5.268-18.22 16.212-18.22 28.875 0 15.247 10.667 28.003 24.945 31.212l0.214 0.040zM214.996 178.886c-2.353 4.346-3.736 9.514-3.736 15.006 0 17.673 14.327 32 32 32s32-14.327 32-32c0-1.737-0.138-3.442-0.405-5.104l0.024 0.183c-15.591-4.168-28.51-13.672-36.98-26.393l-0.146-0.234c-9.931 1.784-18.137 7.944-22.673 16.372l-0.084 0.17zM300.33 108.607c-2.349-3.83-4.411-8.248-5.956-12.901l-0.131-0.455c-0.943-0.099-2.038-0.155-3.145-0.155-17.686 0-32.022 14.337-32.022 32.023s14.337 32.023 32.022 32.023c16.359 0 29.852-12.266 31.785-28.103l0.015-0.154c-9.344-5.504-16.955-13.022-22.409-21.995l-0.159-0.282zM338.643 48.175c-9.36 5.696-15.515 15.843-15.515 27.427 0 17.673 14.327 32 32 32 13.304 0 24.712-8.119 29.539-19.672l0.078-0.211c-10.628-10.885-17.396-25.579-18.069-41.847l-0.004-0.127c-3.42-1.362-7.384-2.151-11.532-2.151-6.094 0-11.79 1.704-16.638 4.662l0.141-0.080zM422.037 12.268c-13.647 3.86-23.479 16.204-23.479 30.845 0 17.673 14.327 32 32 32 10.261 0 19.395-4.83 25.25-12.34l0.054-0.071c-4.948-8.852-7.862-19.423-7.862-30.674 0-5.178 0.617-10.211 1.782-15.031l-0.089 0.435c-5.262-3.952-11.903-6.329-19.1-6.329-3.045 0-5.991 0.426-8.782 1.221l0.226-0.055zM512 0c-17.673 0-32 14.327-32 32s14.327 32 32 32c17.673 0 32-14.327 32-32v0c-0.021-17.665-14.335-31.979-31.998-32h-0.002zM602.432 12.268c-2.567-0.741-5.515-1.167-8.562-1.167-7.37 0-14.158 2.491-19.568 6.677l0.074-0.055c1.033 4.298 1.625 9.232 1.625 14.305 0 11.114-2.843 21.563-7.84 30.662l0.167-0.331c5.901 7.766 15.143 12.73 25.544 12.73 17.67 0 31.994-14.324 31.994-31.994 0-14.623-9.81-26.954-23.208-30.773l-0.226-0.055zM685.826 48.175c-4.707-2.877-10.403-4.581-16.497-4.581-4.148 0-8.112 0.789-11.749 2.226l0.217-0.075c-0.677 16.396-7.445 31.091-18.086 41.988l0.012-0.013c4.91 11.75 16.309 19.857 29.602 19.857 17.669 0 31.993-14.324 31.993-31.993 0-11.573-6.145-21.712-15.351-27.329l-0.141-0.080zM756.561 105.101c-5.845-6.164-14.093-10-23.236-10-1.091 0-2.17 0.055-3.234 0.161l0.134-0.011c-1.676 5.108-3.738 9.525-6.247 13.639l0.161-0.284c-5.614 9.255-13.225 16.773-22.273 22.116l-0.296 0.162c1.961 15.958 15.432 28.194 31.762 28.194 17.666 0 31.987-14.321 31.987-31.987 0-8.525-3.335-16.271-8.771-22.005l0.013 0.014zM809.469 178.885c-4.619-8.598-12.823-14.759-22.558-16.514l-0.195-0.029c-8.623 12.957-21.54 22.468-36.683 26.554l-0.447 0.103c-0.236 1.46-0.371 3.143-0.371 4.857 0 17.666 14.321 31.987 31.987 31.987s31.987-14.321 31.987-31.987c0-5.478-1.377-10.634-3.804-15.141l0.084 0.17zM840.693 264.145c-2.201-9.803-8.668-17.761-17.304-21.949l-0.19-0.083c-11.146 9.766-25.842 15.723-41.93 15.723-0.341 0-0.682-0.003-1.022-0.008l0.051 0.001c-1.79 3.867-2.834 8.393-2.834 13.163 0 17.665 14.32 31.985 31.985 31.985s31.985-14.32 31.985-31.985c0-2.426-0.27-4.789-0.782-7.060l0.040 0.214z" />
<glyph unicode="&#xe90d;" glyph-name="pendant" d="M1010.68 878.216c-6.050 4.899-13.839 7.865-22.322 7.865-11.192 0-21.178-5.163-27.705-13.238l-0.053-0.067-79.576-98.992c-84.996-105.038-193.467-187.734-317.665-240.674l-5.359-2.030v5.168c0 25.405-20.595 46-46 46s-46-20.595-46-46v0-5.168c-129.557 54.97-238.028 137.666-321.817 241.164l-1.207 1.54-79.568 99.016c-6.586 8.138-16.575 13.298-27.768 13.298-19.683 0-35.64-15.957-35.64-35.64 0-0.004 0-0.007 0-0.011v0.001-33.096c0.010-8.479 2.97-16.265 7.909-22.388l-0.053 0.068 63.416-78.888c102.309-126.513 235.589-224.090 388.457-281.718l6.271-2.074v-89.6l-68.704-40.744c-10.105-6.101-18.326-14.365-24.2-24.193l-0.176-0.319c-0.248-0.352-0.528-0.664-0.744-1.040s-0.336-0.8-0.512-1.16c-5.42-9.663-8.627-21.201-8.664-33.485v-115.059c0.040-12.289 3.243-23.82 8.838-33.834l-0.182 0.354c0.185-0.48 0.36-0.865 0.553-1.239l-0.033 0.071c0.112-0.208 0.288-0.344 0.408-0.536 6.083-10.382 14.428-18.829 24.399-24.856l0.313-0.176 79-46.848c10.205-6.158 22.529-9.801 35.704-9.801s25.499 3.643 36.019 9.977l-0.315-0.176 79 46.848c10.282 6.206 18.624 14.656 24.526 24.711l0.178 0.329c0.135 0.156 0.269 0.328 0.394 0.507l0.014 0.021c0.216 0.376 0.344 0.8 0.52 1.16 5.413 9.662 8.616 21.197 8.656 33.476v115.084c-0.037 12.295-3.244 23.833-8.846 33.85l0.182-0.354c-0.176 0.384-0.296 0.8-0.512 1.16s-0.488 0.68-0.736 1.032c-6.051 10.151-14.274 18.418-24.072 24.345l-0.312 0.175-68.696 40.744v89.6c159.14 59.705 292.423 157.281 393.392 282.076l1.344 1.716 63.392 78.88c4.891 6.048 7.857 13.828 7.872 22.301v33.099c0 0.026 0 0.056 0 0.086 0 11.172-5.171 21.135-13.251 27.628l-0.069 0.054zM512 105.488l-57 33.816v89.992l57 33.816 57-33.816v-89.992zM494 536.248c0 9.941 8.059 18 18 18s18-8.059 18-18v0-179.92c-2.072 0.552-4.176 0.88-6.28 1.24-0.856 0.144-1.696 0.392-2.56 0.504-2.751 0.387-5.93 0.608-9.16 0.608s-6.409-0.221-9.521-0.649l0.361 0.041c-0.864-0.112-1.704-0.36-2.56-0.504-2.104-0.36-4.208-0.688-6.28-1.24zM93.096 733.688l-63.424 78.896c-1.042 1.293-1.672 2.955-1.672 4.764 0 0.012 0 0.025 0 0.037v-0.002 33.064c0 0.005 0 0.011 0 0.017 0 2.391 1.106 4.524 2.833 5.916l0.015 0.011c1.289 1.046 2.951 1.68 4.76 1.68v0c0.126 0.008 0.272 0.012 0.42 0.012s0.294-0.004 0.44-0.013l-0.020 0.001c2.103-0.235 3.919-1.3 5.14-2.856l0.012-0.016 79.568-98.992c90.286-111.598 206.279-198.887 339.179-253.411l5.653-2.053v-38.6c-150.159 58.377-275.876 151.5-371.6 269.878l-1.304 1.666zM489.976 324.448l0.584 0.352c2.112 1.245 4.564 2.382 7.129 3.278l0.295 0.090v-40.8l-57.136-33.888-35.248 20.064c1.766 1.579 3.717 3.033 5.791 4.307l0.177 0.101zM391.744 119.384c-0.446 2.209-0.716 4.76-0.744 7.369v115.071c0.028 2.632 0.297 5.183 0.787 7.655l-0.043-0.263 35.256-20.080v-89.672zM411.576 90.64c-2.253 1.384-4.206 2.841-6.018 4.453l0.042-0.037 35.264 20.080 57.136-33.888v-40.8c-2.86 0.989-5.311 2.129-7.622 3.483l0.198-0.107zM533.424 43.792c-2.112-1.247-4.564-2.387-7.129-3.286l-0.295-0.090v40.8l57.136 33.888 35.264-20.080c-1.77-1.575-3.723-3.032-5.796-4.313l-0.18-0.103zM632.256 249.216c0.447-2.209 0.716-4.76 0.744-7.369v-115.071c-0.028-2.632-0.298-5.183-0.787-7.655l0.043 0.263-35.256 20.080v89.672zM618.4 273.544l-35.256-20.080-57.144 33.888v40.8c0.272-0.096 0.544-0.176 0.8-0.28 0.504-0.184 1.024-0.312 1.52-0.52 0.696-0.296 1.36-0.696 2.040-1.032 1.024-0.504 2.072-0.96 3.064-1.544l0.584-0.352 78.4-46.496c2.262-1.367 4.221-2.814 6.035-4.421l-0.043 0.037zM996 817.352c0-0.009 0-0.019 0-0.030 0-1.814-0.637-3.479-1.699-4.784l0.011 0.014-63.4-78.888c-97.035-120.034-222.754-213.148-366.906-269.455l-6.006-2.065v38.6c138.561 56.581 254.56 143.878 343.598 253.892l1.25 1.596 79.552 98.968c1.406 1.75 3.546 2.861 5.945 2.861 1.815 0 3.481-0.635 4.789-1.696l-0.014 0.011c1.742-1.403 2.848-3.536 2.848-5.927 0-0.006 0-0.012 0-0.018v0.001z" />
<glyph unicode="&#xe90e;" glyph-name="earrings-1" d="M424.96 316.906c13.684 32.39 8.514 68.842-15.546 92.902-24.060 24.056-60.512 29.226-92.902 15.544-10.55 25.984-31.41 45.298-56.684 52.062v45.144c34.986 8.926 60.936 40.702 60.936 78.43 0 37.166-25.19 68.54-59.386 78 3.462 16.498 12.578 24.306 25.734 35.556 4.896 4.186 9.958 8.516 15.136 13.662 21.286 21.17 31.584 50.524 28.256 80.522-5.008 45.432-41.67 81.76-87.178 86.38-43.622 4.416-85.3-20.884-101.348-61.532-4.056-10.274 0.984-21.89 11.258-25.948 10.278-4.054 21.892 0.986 25.948 11.26 9.652 24.448 33.806 39.096 60.108 36.422 26.86-2.726 48.5-24.162 51.456-50.98 1.978-17.828-4.11-35.238-16.702-47.76-4.112-4.088-8.394-7.75-12.93-11.628-16.744-14.32-35.408-30.308-40.138-65.26-35.562-8.52-62.082-40.558-62.082-78.696 0-37.728 25.95-69.504 60.936-78.43v-45.142c-25.272-6.762-46.134-26.078-56.684-52.062-32.386 13.68-68.842 8.512-92.902-15.544-24.058-24.060-29.23-60.512-15.546-92.902-32.58-13.228-54.7-42.66-54.7-76.684s22.12-63.456 54.7-76.684c-13.684-32.39-8.514-68.842 15.544-92.902 24.060-24.056 60.508-29.232 92.902-15.544 13.228-32.58 42.66-54.7 76.684-54.7s63.456 22.12 76.684 54.7c32.388-13.68 68.844-8.51 92.902 15.544 24.058 24.058 29.228 60.512 15.544 92.902 32.58 13.226 54.7 42.658 54.7 76.684s-22.12 63.458-54.7 76.684zM381.13 381.524c15.086-15.084 14.914-40.682 0.158-61.060l-28.906-11.968c-10.996 18.062-26.218 33.284-44.278 44.282l11.968 28.91c20.38 14.752 45.974 14.922 61.058-0.164zM239.83 148.548c-50.548 0-91.674 41.126-91.674 91.674s41.126 91.674 91.674 91.674 91.672-41.126 91.672-91.674-41.124-91.674-91.672-91.674zM198.894 600.988c0 22.572 18.364 40.936 40.936 40.936s40.936-18.364 40.936-40.936-18.364-40.936-40.936-40.936-40.936 18.364-40.936 40.936zM239.83 440.052c21.328 0 39.312-18.206 43.294-43.042l-11.968-28.912c-10.046 2.462-20.532 3.796-31.326 3.796-10.796 0-21.28-1.334-31.326-3.796l-11.968 28.91c3.982 24.838 21.966 43.044 43.294 43.044zM98.528 381.524c15.086 15.082 40.678 14.914 61.058 0.162l11.968-28.91c-18.058-10.996-33.274-26.21-44.27-44.268l-28.93 11.976c-14.74 20.376-14.906 45.958 0.174 61.040zM40 240.222c0 21.336 18.218 39.322 43.066 43.298l28.888-11.96c-2.464-10.050-3.798-20.54-3.798-31.34 0-10.796 1.334-21.282 3.796-31.328l-28.914-11.966c-24.832 3.986-43.038 21.97-43.038 43.296zM98.53 98.922c-15.086 15.084-14.914 40.68-0.16 61.058l28.91 11.964c10.998-18.060 26.218-33.28 44.278-44.278l-11.972-28.908c-20.38-14.752-45.972-14.922-61.056 0.164zM239.83 40.392c-21.328 0-39.312 18.208-43.294 43.044l11.972 28.908c10.046-2.46 20.53-3.794 31.324-3.794s21.276 1.334 31.322 3.794l11.972-28.91c-3.984-24.836-21.968-43.042-43.296-43.042zM381.13 98.922c-15.084-15.088-40.678-14.914-61.058-0.16l-11.972 28.906c18.062 10.996 33.282 26.216 44.28 44.278l28.912-11.966c14.752-20.38 14.922-45.974-0.162-61.058zM396.622 196.928l-28.914 11.966c2.462 10.046 3.796 20.532 3.796 31.328 0 10.794-1.334 21.278-3.796 31.324l28.914 11.97c24.834-3.984 43.038-21.968 43.038-43.294s-18.206-39.31-43.038-43.294zM1024 240.222c0 34.026-22.12 63.458-54.7 76.684 13.684 32.39 8.514 68.842-15.546 92.902-24.058 24.056-60.51 29.226-92.9 15.544-10.55 25.984-31.412 45.3-56.684 52.062v46.916c5.878 4.18 9.294 11.398 8.236 19.038-1.514 10.942-11.622 18.59-22.552 17.070-1.858-0.256-3.77-0.386-5.684-0.386-22.572 0-40.936 18.364-40.936 40.936s18.364 40.936 40.936 40.936c1.906 0 3.814-0.13 5.668-0.386 10.946-1.502 21.040 6.126 22.554 17.066 0.988 7.13-1.93 13.886-7.098 18.158 3.090 18.046 12.426 26.038 26.158 37.784 4.896 4.186 9.958 8.516 15.134 13.662 21.286 21.168 31.584 50.522 28.256 80.522-2.172 19.692-10.274 38.084-23.43 53.19-16.464 18.902-39.104 30.69-63.748 33.192-43.638 4.416-85.3-20.884-101.348-61.532-4.056-10.274 0.984-21.89 11.258-25.948 10.278-4.054 21.892 0.986 25.948 11.26 9.654 24.448 33.81 39.1 60.108 36.422 14.494-1.47 27.854-8.456 37.622-19.668 7.776-8.928 12.56-19.75 13.836-31.312 1.978-17.83-4.112-35.238-16.702-47.76-4.112-4.088-8.394-7.75-12.93-11.628-16.744-14.32-35.408-30.308-40.138-65.26-35.56-8.52-62.082-40.558-62.082-78.696 0-37.728 25.95-69.504 60.936-78.43v-45.144c-25.274-6.762-46.134-26.078-56.684-52.062-32.388 13.68-68.842 8.512-92.902-15.544-24.060-24.060-29.23-60.512-15.546-92.902-32.578-13.226-54.698-42.658-54.698-76.684s22.12-63.456 54.7-76.684c-13.684-32.39-8.514-68.844 15.544-92.902 24.058-24.056 60.512-29.232 92.902-15.544 13.228-32.58 42.66-54.7 76.684-54.7 34.026 0 63.456 22.12 76.684 54.7 32.39-13.68 68.846-8.51 92.902 15.544 24.058 24.058 29.228 60.512 15.544 92.902 32.578 13.226 54.698 42.658 54.698 76.682zM925.47 381.524c15.086-15.084 14.914-40.68 0.158-61.060l-28.906-11.968c-10.996 18.062-26.216 33.282-44.278 44.28l11.968 28.908c20.382 14.75 45.976 14.924 61.058-0.16zM784.17 148.548c-50.55 0-91.672 41.126-91.672 91.674s41.124 91.674 91.672 91.674 91.674-41.126 91.674-91.674-41.126-91.674-91.674-91.674zM784.17 440.052c21.33 0 39.312-18.208 43.294-43.042l-11.968-28.91c-10.046 2.462-20.532 3.796-31.326 3.796s-21.28-1.334-31.326-3.796l-11.968 28.912c3.982 24.834 21.966 43.040 43.294 43.040zM642.87 381.524c15.086 15.082 40.678 14.914 61.058 0.16l11.968-28.908c-18.058-10.996-33.274-26.21-44.27-44.268l-28.93 11.976c-14.742 20.376-14.908 45.96 0.174 61.040zM584.34 240.222c0 21.336 18.218 39.322 43.066 43.298l28.89-11.96c-2.464-10.050-3.798-20.54-3.798-31.34 0-10.796 1.334-21.282 3.796-31.328l-28.914-11.966c-24.834 3.986-43.040 21.97-43.040 43.296zM642.87 98.922c-15.086 15.084-14.914 40.678-0.162 61.058l28.912 11.966c10.998-18.060 26.218-33.282 44.278-44.278l-11.972-28.906c-20.38-14.756-45.972-14.926-61.056 0.16zM784.17 40.392c-21.328 0-39.312 18.206-43.294 43.042l11.972 28.91c10.046-2.46 20.53-3.794 31.322-3.794 10.794 0 21.278 1.334 31.324 3.794l11.972-28.908c-3.984-24.836-21.966-43.044-43.296-43.044zM925.47 98.922c-15.084-15.088-40.676-14.914-61.058-0.162l-11.972 28.908c18.062 10.996 33.282 26.216 44.278 44.278l28.91-11.964c14.756-20.384 14.928-45.976-0.158-61.060zM940.96 196.928l-28.914 11.966c2.462 10.046 3.796 20.532 3.796 31.328 0 10.794-1.334 21.278-3.796 31.324l28.912 11.97c24.834-3.984 43.040-21.968 43.040-43.294s-18.204-39.31-43.038-43.294zM865.106 600.988c0-11.046-8.954-20-20-20s-20 8.954-20 20c0 11.046 8.954 20 20 20s20-8.954 20-20z" />
<glyph unicode="&#xe90f;" glyph-name="earrings" d="M273.126 772.179c0 9.425-7.639 17.064-17.064 17.064-18.85 0-34.13 15.28-34.13 34.13 0 9.425-7.641 17.064-17.064 17.064s-17.064-7.639-17.064-17.064c0-37.698 30.561-68.259 68.259-68.259 9.425 0 17.064 7.639 17.064 17.064zM256.061 857.505c18.85 0 34.13-15.28 34.13-34.13 0-9.425 7.639-17.064 17.064-17.064s17.064 7.639 17.064 17.064c0 37.698-30.561 68.259-68.259 68.259-9.425 0-17.064-7.639-17.064-17.064s7.639-17.064 17.064-17.064zM298.945 497.23c20.070 16.158 29.293 42.266 23.828 67.445s-24.683 45.113-49.647 51.497v71.861c71.513 9.009 123.699 72.061 119.186 143.997s-64.171 127.971-136.25 127.971-131.738-56.034-136.252-127.971 47.673-134.988 119.186-143.997v-71.861c-24.963-6.383-44.179-26.317-49.647-51.497-5.465-25.179 3.758-51.287 23.828-67.445l-154.88-245.531c-34.386-63.793-31.891-141.133 6.535-202.577 38.71-69.405 111.762-112.618 191.23-113.122 79.448 0.492 152.49 43.679 191.212 113.054 38.52 61.68 40.862 139.32 6.125 203.209l-154.454 244.967zM153.672 823.374c0 56.548 45.841 102.389 102.389 102.389s102.389-45.841 102.389-102.389-45.841-102.389-102.389-102.389c-56.524 0.056-102.333 45.865-102.389 102.389zM231.928 574.47c6.401 6.401 15.082 9.997 24.134 9.997 18.85 0 34.13-15.28 34.13-34.13-0.060-9.227-3.896-18.028-10.615-24.351-13.175 12.525-33.856 12.525-47.031 0-6.719 6.323-10.555 15.124-10.615 24.351 0 9.051 3.596 17.732 9.997 24.134zM417.803 66.137c-32.699-58.786-94.474-95.456-161.741-96.008-67.269 0.556-129.041 37.25-161.707 96.058-32.161 50.709-34.752 114.744-6.791 167.885l168.499 267.27 168.107-266.708c28.297-53.23 25.867-117.552-6.365-168.497zM394.765 217.315l-124.267 197.082c-3.328 4.668-8.705 7.437-14.437 7.437s-11.109-2.77-14.437-7.437l-31.059-49.283c-4.658-7.945-2.17-18.154 5.621-23.066s18.074-2.754 23.236 4.875l16.638 26.365 109.335-173.346c3.826-6.947 6.603-14.425 8.243-22.184 1.708-8.061 2.338-16.312 1.878-24.539-0.552-8.899-2.196-17.696-4.897-26.195-2.918-9.265-6.867-18.172-11.775-26.553-5.563-9.531-12.275-18.346-19.982-26.245-7.313-7.511-15.554-14.061-24.521-19.488-8.737-5.259-18.138-9.329-27.953-12.099-19.83-5.541-40.802-5.541-60.632 0-9.815 2.776-19.216 6.851-27.953 12.117-8.977 5.409-17.218 11.955-24.521 19.472-7.695 7.929-14.389 16.772-19.932 26.331-4.899 8.391-8.849 17.304-11.775 26.569-2.674 8.491-4.306 17.276-4.863 26.161-0.536 8.241 0.038 16.518 1.706 24.607 1.572 7.419 4.174 14.582 7.731 21.28l62.15 98.532c3.256 5.155 3.514 11.655 0.678 17.052s-8.337 8.871-14.429 9.113c-6.091 0.242-11.851-2.784-15.106-7.939l-62.594-99.472c-5.433-9.863-9.383-20.472-11.723-31.485-2.342-11.089-3.174-22.444-2.474-33.755 0.704-11.661 2.836-23.192 6.347-34.334 3.676-11.699 8.655-22.948 14.846-33.533 6.935-11.999 15.332-23.092 24.999-33.021 9.351-9.615 19.898-17.988 31.383-24.915 11.345-6.829 23.552-12.109 36.296-15.7 25.863-7.281 53.232-7.281 79.096 0 12.745 3.59 24.953 8.869 36.296 15.7 11.483 6.929 22.030 15.302 31.383 24.915 9.653 9.927 18.038 21.014 24.965 33.003 6.191 10.585 11.171 21.834 14.846 33.533 3.52 11.147 5.663 22.684 6.381 34.352 0.69 11.313-0.148 22.666-2.492 33.755-2.426 11.333-6.551 22.234-12.235 32.337zM785.073 772.179c0 9.425-7.639 17.064-17.064 17.064-18.85 0-34.13 15.28-34.13 34.13 0 9.425-7.639 17.064-17.064 17.064s-17.064-7.639-17.064-17.064c0-37.698 30.561-68.259 68.259-68.259 9.425 0 17.064 7.639 17.064 17.064zM768.008 857.505c18.85 0 34.13-15.28 34.13-34.13 0-9.425 7.641-17.064 17.064-17.064 9.425 0 17.064 7.639 17.064 17.064 0 37.698-30.561 68.259-68.259 68.259-9.425 0-17.064-7.639-17.064-17.064s7.639-17.064 17.064-17.064zM965.348 252.263l-154.454 244.967c20.070 16.158 29.293 42.266 23.828 67.445s-24.683 45.113-49.647 51.497v71.861c71.513 9.009 123.699 72.061 119.186 143.997s-64.173 127.971-136.252 127.971-131.738-56.034-136.252-127.971 47.673-134.988 119.186-143.997v-71.861c-24.963-6.383-44.179-26.317-49.647-51.497-5.465-25.179 3.758-51.287 23.828-67.445l-154.882-245.531c-34.386-63.793-31.891-141.133 6.535-202.577 38.71-69.405 111.762-112.618 191.23-113.122 79.448 0.492 152.49 43.679 191.212 113.054 38.522 61.68 40.864 139.32 6.129 203.209zM665.619 823.374c0 56.548 45.841 102.389 102.389 102.389s102.389-45.841 102.389-102.389-45.841-102.389-102.389-102.389c-56.524 0.056-102.333 45.865-102.389 102.389zM743.875 574.47c6.401 6.401 15.082 9.997 24.134 9.997 18.85 0 34.13-15.28 34.13-34.13-0.060-9.227-3.896-18.028-10.615-24.351-13.175 12.525-33.856 12.525-47.031 0-6.719 6.323-10.555 15.124-10.615 24.351 0 9.051 3.598 17.732 9.997 24.134zM929.75 66.137c-32.263-59.212-94.302-96.060-161.733-96.060s-129.471 36.848-161.733 96.060c-32.175 50.725-34.76 114.784-6.775 167.937l168.499 267.27 168.107-266.708c28.299-53.232 25.869-117.554-6.363-168.499zM906.712 217.315l-124.267 197.082c-3.328 4.668-8.705 7.437-14.437 7.437s-11.109-2.77-14.437-7.437l-31.059-49.283c-4.658-7.945-2.17-18.154 5.621-23.066s18.074-2.754 23.236 4.875l16.638 26.365 109.335-173.346c3.826-6.947 6.603-14.425 8.243-22.184 1.656-8.091 2.23-16.366 1.706-24.607-0.552-8.899-2.196-17.696-4.897-26.195-2.918-9.265-6.867-18.172-11.775-26.553-5.515-9.499-12.169-18.29-19.812-26.177-7.313-7.511-15.554-14.061-24.521-19.488-8.737-5.259-18.138-9.329-27.953-12.099-19.83-5.541-40.802-5.541-60.632 0-9.815 2.776-19.216 6.851-27.953 12.117-8.977 5.409-17.218 11.955-24.521 19.472-7.695 7.929-14.389 16.772-19.932 26.331-4.899 8.391-8.849 17.304-11.775 26.569-2.674 8.491-4.306 17.276-4.863 26.161-0.536 8.241 0.038 16.518 1.706 24.607 1.572 7.419 4.174 14.582 7.731 21.28l62.15 98.532c3.256 5.155 3.514 11.655 0.678 17.052s-8.337 8.871-14.429 9.113c-6.091 0.242-11.851-2.784-15.106-7.939l-62.662-99.404c-5.433-9.863-9.383-20.472-11.723-31.485-2.342-11.089-3.174-22.444-2.474-33.755 0.704-11.655 2.836-23.182 6.347-34.318 3.692-11.731 8.693-23.010 14.914-33.619 6.935-11.999 15.332-23.092 24.999-33.021 9.351-9.615 19.898-17.988 31.383-24.915 11.345-6.829 23.552-12.109 36.296-15.7 25.863-7.281 53.232-7.281 79.096 0 12.745 3.59 24.953 8.869 36.296 15.7 11.483 6.929 22.030 15.302 31.383 24.915 9.653 9.927 18.038 21.014 24.965 33.003 6.191 10.585 11.171 21.834 14.846 33.533 3.52 11.147 5.663 22.684 6.381 34.352 0.69 11.313-0.148 22.666-2.492 33.755-2.424 11.335-6.549 22.236-12.233 32.339z" />
<glyph unicode="&#xe910;" glyph-name="left-arrow" d="M334.018 797.137c14.436 14.436 37.164 14.436 51.6 0 13.949-13.949 13.949-37.164 0-51.080l-261.641-261.641h863.38c20.126 0 36.643-15.997 36.643-36.123s-16.517-36.643-36.643-36.643h-863.38l261.641-261.153c13.949-14.436 13.949-37.684 0-51.6-14.436-14.436-37.164-14.436-51.6 0l-323.581 323.581c-13.949 13.949-13.949 37.164 0 51.080l323.581 323.581z" />
<glyph unicode="&#xe911;" glyph-name="email" d="M987.428 813.714h-950.856c-20.199 0-36.572-16.374-36.572-36.57v-658.285c0-20.199 16.374-36.572 36.572-36.572h950.856c20.199 0 36.572 16.374 36.572 36.572v658.285c0 20.196-16.374 36.57-36.572 36.57zM927.451 740.572l-415.453-319.562-415.45 319.562h830.903zM950.856 155.428h-877.714v510.868l416.586-320.438c13.136-10.086 31.408-10.086 44.544 0l416.584 320.438v-510.868z" />
<glyph unicode="&#xe912;" glyph-name="pin" d="M883.094 691.672c-36.506 117.944-131.336 213.554-247.482 249.524-123.682 38.302-252.624 17.51-353.76-57.044-48.46-35.722-88.672-82.84-116.286-136.254-28.54-55.206-43.624-117.358-43.624-179.74 0-85.096 26.918-165.964 77.846-233.862l312.252-398.296 312.254 398.296c76.212 101.618 97.646 231.878 58.8 357.376zM776.466 370.552l-264.426-337.314-264.428 337.314c-42.95 57.378-65.654 125.704-65.654 197.606 0 105.066 50.656 205.136 135.506 267.684 85.628 63.122 195.118 80.624 300.396 48.024 97.504-30.196 177.168-110.64 207.906-209.938 33.056-106.804 15.086-217.364-49.3-303.376zM512.040 778.21c-115.822 0-210.052-94.23-210.052-210.052s94.23-210.052 210.052-210.052 210.052 94.23 210.052 210.052c0 115.822-94.23 210.052-210.052 210.052zM512.040 418.12c-82.73 0-150.038 67.306-150.038 150.038 0 82.73 67.306 150.038 150.038 150.038s150.038-67.306 150.038-150.038c0-82.73-67.308-150.038-150.038-150.038z" />
<glyph unicode="&#xe913;" glyph-name="compare" d="M656.565 779.294h42.165v-646.525h-42.165zM678.651 90.604c-6.024 0-10.039 2.008-14.055 6.024l-124.486 124.486 30.118 30.118 110.431-110.431 110.431 110.431 30.118-30.118-128.502-124.486c-4.016-4.016-10.039-6.024-14.055-6.024zM323.263 757.208h42.165v-646.525h-42.165zM453.773 638.745l-110.431 110.431-110.431-110.431-30.118 30.118 124.486 124.486c8.031 8.031 22.086 8.031 30.118 0l124.486-124.486z" />
</font>
</defs>
</svg>
